999
dxfrw 0.5.11
0
SECTION
2
HEADER
9
$ACADVER
1
AC1021
9
$HANDSEED
5
20000
9
$DWGCODEPAGE
3
ANSI_1252
9
$INSBASE
10
0
20
0
30
0
9
$EXTMIN
10
-15.5021362
20
-6
30
0
9
$EXTMAX
10
551.4978638
20
95
30
0
9
$LIMMIN
10
0
20
0
9
$LIMMAX
10
420
20
297
9
$ORTHOMODE
70
0
9
$LTSCALE
40
1
9
$TEXTSTYLE
7
STANDARD
9
$CLAYER
8
einzel_2
9
$DIMASZ
40
3
9
$DIMLFAC
40
1
9
$DIMSCALE
40
1
9
$DIMEXO
40
0
9
$DIMEXE
40
0.6
9
$DIMTXT
40
1
9
$DIMTSZ
40
0
9
$DIMAUNIT
70
0
9
$DIMADEC
70
2
9
$DIMLUNIT
70
2
9
$DIMSTYLE
2
Standard
9
$DIMGAP
40
0.6
9
$DIMTIH
70
0
9
$LUNITS
70
2
9
$LUPREC
70
4
9
$AUNITS
70
0
9
$AUPREC
70
2
9
$SPLINESEGS
70
8
9
$GRIDMODE
70
1
9
$SNAPSTYLE
70
0
9
$GRIDUNIT
10
0
20
0
9
$PINSBASE
10
0
20
0
30
0
9
$PLIMMIN
10
0
20
0
9
$PLIMMAX
10
12
20
9
9
$INSUNITS
70
0
9
$PSVPSCALE
40
1
0
ENDSEC
0
SECTION
2
CLASSES
0
ENDSEC
0
SECTION
2
TABLES
0
TABLE
2
VPORT
5
8
330
0
100
AcDbSymbolTable
70
1
0
VPORT
5
31
330
2
100
AcDbSymbolTableRecord
100
AcDbViewportTableRecord
2
*ACTIVE
70
0
10
0
20
0
11
1
21
1
12
221.793037361
22
72.5140708394
13
0
23
0
14
10
24
10
15
10
25
10
16
0
26
0
36
1
17
0
27
0
37
0
40
319.562008734
41
1.79186228482
42
50
43
0
44
0
50
0
51
0
71
0
72
100
73
1
74
3
75
0
76
1
77
0
78
0
281
0
65
1
110
0
120
0
130
0
111
1
121
0
131
0
112
0
122
1
132
0
79
0
146
0
348
10020
60
7
61
5
292
1
282
1
141
0
142
0
63
250
421
3358443
0
ENDTAB
0
TABLE
2
LTYPE
5
5
330
0
100
AcDbSymbolTable
70
4
0
LTYPE
5
14
330
5
100
AcDbSymbolTableRecord
100
AcDbLinetypeTableRecord
2
ByBlock
70
0
3

72
65
73
0
40
0
0
LTYPE
5
15
330
5
100
AcDbSymbolTableRecord
100
AcDbLinetypeTableRecord
2
ByLayer
70
0
3

72
65
73
0
40
0
0
LTYPE
5
16
330
5
100
AcDbSymbolTableRecord
100
AcDbLinetypeTableRecord
2
Continuous
70
0
3
Solid line
72
65
73
0
40
0
0
LTYPE
5
32
330
5
100
AcDbSymbolTableRecord
100
AcDbLinetypeTableRecord
2
DOT
70
0
3
Dot . . . . . . . . . . . . . . . . . . . . . .
72
65
73
2
40
6.35
49
0
74
0
49
-6.35
74
0
0
LTYPE
5
33
330
5
100
AcDbSymbolTableRecord
100
AcDbLinetypeTableRecord
2
DOT2
70
0
3
Dot (.5x) .....................................
72
65
73
2
40
3.175
49
0
74
0
49
-3.175
74
0
0
LTYPE
5
34
330
5
100
AcDbSymbolTableRecord
100
AcDbLinetypeTableRecord
2
DOTX2
70
0
3
Dot (2x) .  .  .  .  .  .  .  .  .  .  .  .  .
72
65
73
2
40
12.7
49
0
74
0
49
-12.7
74
0
0
LTYPE
5
35
330
5
100
AcDbSymbolTableRecord
100
AcDbLinetypeTableRecord
2
DASHED
70
0
3
Dot . . . . . . . . . . . . . . . . . . . . . .
72
65
73
2
40
19.05
49
12.7
74
0
49
-6.35
74
0
0
LTYPE
5
36
330
5
100
AcDbSymbolTableRecord
100
AcDbLinetypeTableRecord
2
DASHED2
70
0
3
Dashed (.5x) _ _ _ _ _ _ _ _ _ _ _ _ _ _ _ _ _
72
65
73
2
40
9.525
49
6.35
74
0
49
-3.175
74
0
0
LTYPE
5
37
330
5
100
AcDbSymbolTableRecord
100
AcDbLinetypeTableRecord
2
DASHEDX2
70
0
3
Dashed (2x) ____  ____  ____  ____  ____  ___
72
65
73
2
40
38.1
49
25.4
74
0
49
-12.7
74
0
0
LTYPE
5
38
330
5
100
AcDbSymbolTableRecord
100
AcDbLinetypeTableRecord
2
DASHDOT
70
0
3
Dash dot __ . __ . __ . __ . __ . __ . __ . __
72
65
73
4
40
25.4
49
12.7
74
0
49
-6.35
74
0
49
0
74
0
49
-6.35
74
0
0
LTYPE
5
39
330
5
100
AcDbSymbolTableRecord
100
AcDbLinetypeTableRecord
2
DASHDOT2
70
0
3
Dash dot (.5x) _._._._._._._._._._._._._._._.
72
65
73
4
40
12.7
49
6.35
74
0
49
-3.175
74
0
49
0
74
0
49
-3.175
74
0
0
LTYPE
5
3A
330
5
100
AcDbSymbolTableRecord
100
AcDbLinetypeTableRecord
2
DASHDOTX2
70
0
3
Dash dot (2x) ____  .  ____  .  ____  .  ___
72
65
73
4
40
50.8
49
25.4
74
0
49
-12.7
74
0
49
0
74
0
49
-12.7
74
0
0
LTYPE
5
3B
330
5
100
AcDbSymbolTableRecord
100
AcDbLinetypeTableRecord
2
DIVIDE
70
0
3
Divide ____ . . ____ . . ____ . . ____ . . ____
72
65
73
6
40
31.75
49
12.7
74
0
49
-6.35
74
0
49
0
74
0
49
-6.35
74
0
49
0
74
0
49
-6.35
74
0
0
LTYPE
5
3C
330
5
100
AcDbSymbolTableRecord
100
AcDbLinetypeTableRecord
2
DIVIDE2
70
0
3
Divide (.5x) __..__..__..__..__..__..__..__.._
72
65
73
6
40
15.875
49
6.35
74
0
49
-3.175
74
0
49
0
74
0
49
-3.175
74
0
49
0
74
0
49
-3.175
74
0
0
LTYPE
5
3D
330
5
100
AcDbSymbolTableRecord
100
AcDbLinetypeTableRecord
2
DIVIDEX2
70
0
3
Divide (2x) ________  .  .  ________  .  .  _
72
65
73
6
40
63.5
49
25.4
74
0
49
-12.7
74
0
49
0
74
0
49
-12.7
74
0
49
0
74
0
49
-12.7
74
0
0
LTYPE
5
3E
330
5
100
AcDbSymbolTableRecord
100
AcDbLinetypeTableRecord
2
BORDER
70
0
3
Border __ __ . __ __ . __ __ . __ __ . __ __ .
72
65
73
6
40
44.45
49
12.7
74
0
49
-6.35
74
0
49
12.7
74
0
49
-6.35
74
0
49
0
74
0
49
-6.35
74
0
0
LTYPE
5
3F
330
5
100
AcDbSymbolTableRecord
100
AcDbLinetypeTableRecord
2
BORDER2
70
0
3
Border (.5x) __.__.__.__.__.__.__.__.__.__.__.
72
65
73
6
40
22.225
49
6.35
74
0
49
-3.175
74
0
49
6.35
74
0
49
-3.175
74
0
49
0
74
0
49
-3.175
74
0
0
LTYPE
5
40
330
5
100
AcDbSymbolTableRecord
100
AcDbLinetypeTableRecord
2
BORDERX2
70
0
3
Border (2x) ____  ____  .  ____  ____  .  ___
72
65
73
6
40
88.9
49
25.4
74
0
49
-12.7
74
0
49
25.4
74
0
49
-12.7
74
0
49
0
74
0
49
-12.7
74
0
0
LTYPE
5
41
330
5
100
AcDbSymbolTableRecord
100
AcDbLinetypeTableRecord
2
CENTER
70
0
3
Center ____ _ ____ _ ____ _ ____ _ ____ _ ____
72
65
73
4
40
50.8
49
31.75
74
0
49
-6.35
74
0
49
6.35
74
0
49
-6.35
74
0
0
LTYPE
5
42
330
5
100
AcDbSymbolTableRecord
100
AcDbLinetypeTableRecord
2
CENTER2
70
0
3
Center (.5x) ___ _ ___ _ ___ _ ___ _ ___ _ ___
72
65
73
4
40
28.575
49
19.05
74
0
49
-3.175
74
0
49
3.175
74
0
49
-3.175
74
0
0
LTYPE
5
43
330
5
100
AcDbSymbolTableRecord
100
AcDbLinetypeTableRecord
2
CENTERX2
70
0
3
Center (2x) ________  __  ________  __  _____
72
65
73
4
40
101.6
49
63.5
74
0
49
-12.7
74
0
49
12.7
74
0
49
-12.7
74
0
0
ENDTAB
0
TABLE
2
LAYER
5
2
330
0
100
AcDbSymbolTable
70
1
0
LAYER
5
10
330
2
100
AcDbSymbolTableRecord
100
AcDbLayerTableRecord
2
0
70
0
62
7
6
CONTINUOUS
370
-3
390
F
0
LAYER
5
44
330
2
100
AcDbSymbolTableRecord
100
AcDbLayerTableRecord
2
accel
70
0
62
4
6
CONTINUOUS
370
0
390
F
0
LAYER
5
45
330
2
100
AcDbSymbolTableRecord
100
AcDbLayerTableRecord
2
center
70
0
62
4
6
CENTER
370
0
390
F
0
LAYER
5
46
330
2
100
AcDbSymbolTableRecord
100
AcDbLayerTableRecord
2
dim
70
0
62
8
6
CONTINUOUS
370
0
390
F
0
LAYER
5
47
330
2
100
AcDbSymbolTableRecord
100
AcDbLayerTableRecord
2
einzel_1
70
0
62
6
6
CONTINUOUS
370
0
390
F
0
LAYER
5
48
330
2
100
AcDbSymbolTableRecord
100
AcDbLayerTableRecord
2
ext_einzel
70
0
62
3
6
CONTINUOUS
370
0
390
F
0
LAYER
5
49
330
2
100
AcDbSymbolTableRecord
100
AcDbLayerTableRecord
2
gnd
70
0
62
5
6
CONTINUOUS
370
0
390
F
0
LAYER
5
4A
330
2
100
AcDbSymbolTableRecord
100
AcDbLayerTableRecord
2
mag_calc
70
1
62
9
6
CONTINUOUS
370
0
390
F
0
LAYER
5
4B
330
2
100
AcDbSymbolTableRecord
100
AcDbLayerTableRecord
2
magnets
70
0
62
8
6
CONTINUOUS
370
0
390
F
0
LAYER
5
4C
330
2
100
AcDbSymbolTableRecord
100
AcDbLayerTableRecord
2
einzel_2
70
0
62
230
6
CONTINUOUS
370
0
390
F
0
LAYER
5
4D
330
2
100
AcDbSymbolTableRecord
100
AcDbLayerTableRecord
2
old_einzel_gnd
70
1
62
72
6
CONTINUOUS
370
0
390
F
0
LAYER
5
4E
330
2
100
AcDbSymbolTableRecord
100
AcDbLayerTableRecord
2
old_einzel_mid
70
1
62
40
6
CONTINUOUS
370
0
390
F
0
LAYER
5
4F
330
2
100
AcDbSymbolTableRecord
100
AcDbLayerTableRecord
2
plasma
70
0
62
1
6
CONTINUOUS
370
0
390
F
0
LAYER
5
50
330
2
100
AcDbSymbolTableRecord
100
AcDbLayerTableRecord
2
puller
70
0
62
2
6
CONTINUOUS
370
0
390
F
0
ENDTAB
0
TABLE
2
STYLE
5
3
330
0
100
AcDbSymbolTable
70
3
0
STYLE
5
51
330
2
100
AcDbSymbolTableRecord
100
AcDbTextStyleTableRecord
2
Standard
70
0
40
0
41
1
50
0
71
0
42
1
3
txt
4

0
ENDTAB
0
TABLE
2
VIEW
5
6
330
0
100
AcDbSymbolTable
70
0
0
ENDTAB
0
TABLE
2
UCS
5
7
330
0
100
AcDbSymbolTable
70
0
0
ENDTAB
0
TABLE
2
APPID
5
9
330
0
100
AcDbSymbolTable
70
1
0
APPID
5
12
330
9
100
AcDbSymbolTableRecord
100
AcDbRegAppTableRecord
2
ACAD
70
0
0
ENDTAB
0
TABLE
2
DIMSTYLE
5
A
330
0
100
AcDbSymbolTable
70
1
100
AcDbDimStyleTable
71
1
0
DIMSTYLE
105
52
330
A
100
AcDbSymbolTableRecord
100
AcDbDimStyleTableRecord
2
Standard
70
0
40
1
41
3
42
0
43
0.38
44
0.6
45
0
46
0
47
0
48
0
140
1
141
0.09
142
0
143
25.4
144
1
145
0
146
1
147
0.6
148
0
71
0
72
0
73
0
74
1
75
0
76
0
77
0
78
0
79
0
170
0
171
2
172
0
173
0
174
0
175
0
176
0
177
0
178
0
179
0
271
4
272
4
273
2
274
2
275
0
276
0
277
2
278
46
279
0
280
0
281
0
282
0
283
1
284
0
285
0
286
0
288
0
289
3
340
Standard
341

371
-2
372
-2
0
ENDTAB
0
TABLE
2
BLOCK_RECORD
5
1
330
0
100
AcDbSymbolTable
70
2
0
BLOCK_RECORD
5
1F
330
1
100
AcDbSymbolTableRecord
100
AcDbBlockTableRecord
2
*Model_Space
70
0
280
1
281
0
0
BLOCK_RECORD
5
1E
330
1
100
AcDbSymbolTableRecord
100
AcDbBlockTableRecord
2
*Paper_Space
70
0
280
1
281
0
0
BLOCK_RECORD
5
53
330
1
100
AcDbSymbolTableRecord
100
AcDbBlockTableRecord
2
*D4
70
0
280
1
281
0
0
BLOCK_RECORD
5
56
330
1
100
AcDbSymbolTableRecord
100
AcDbBlockTableRecord
2
*D10
70
0
280
1
281
0
0
BLOCK_RECORD
5
59
330
1
100
AcDbSymbolTableRecord
100
AcDbBlockTableRecord
2
*D7
70
0
280
1
281
0
0
BLOCK_RECORD
5
5C
330
1
100
AcDbSymbolTableRecord
100
AcDbBlockTableRecord
2
*D1
70
0
280
1
281
0
0
BLOCK_RECORD
5
5F
330
1
100
AcDbSymbolTableRecord
100
AcDbBlockTableRecord
2
*D5
70
0
280
1
281
0
0
BLOCK_RECORD
5
62
330
1
100
AcDbSymbolTableRecord
100
AcDbBlockTableRecord
2
*D8
70
0
280
1
281
0
0
BLOCK_RECORD
5
65
330
1
100
AcDbSymbolTableRecord
100
AcDbBlockTableRecord
2
*D6
70
0
280
1
281
0
0
BLOCK_RECORD
5
68
330
1
100
AcDbSymbolTableRecord
100
AcDbBlockTableRecord
2
*D2
70
0
280
1
281
0
0
BLOCK_RECORD
5
6B
330
1
100
AcDbSymbolTableRecord
100
AcDbBlockTableRecord
2
*D3
70
0
280
1
281
0
0
BLOCK_RECORD
5
6E
330
1
100
AcDbSymbolTableRecord
100
AcDbBlockTableRecord
2
*D9
70
0
280
1
281
0
0
ENDTAB
0
ENDSEC
0
SECTION
2
BLOCKS
0
BLOCK
5
20
330
1F
100
AcDbEntity
8
0
100
AcDbBlockBegin
2
*Model_Space
70
0
10
0
20
0
30
0
3
*Model_Space
1

0
ENDBLK
5
21
330
1F
100
AcDbEntity
8
0
100
AcDbBlockEnd
0
BLOCK
5
1C
330
1B
100
AcDbEntity
8
0
100
AcDbBlockBegin
2
*Paper_Space
70
0
10
0
20
0
30
0
3
*Paper_Space
1

0
ENDBLK
5
1D
330
1F
100
AcDbEntity
8
0
100
AcDbBlockEnd
0
BLOCK
5
54
330
53
100
AcDbEntity
8
0
100
AcDbBlockBegin
2
*D4
70
1
10
0
20
0
3
*D4
1

0
LINE
5
71
100
AcDbEntity
8
mag_calc
6
CONTINUOUS
62
7
370
0
100
AcDbLine
10
21.0958916
20
16.48492423
11
14.3661438463
21
23.2146719837
0
LINE
5
72
100
AcDbEntity
8
mag_calc
6
CONTINUOUS
62
7
370
0
100
AcDbLine
10
23.217212
20
18.60624463
11
16.4874642463
21
25.3359923837
0
LINE
5
73
100
AcDbEntity
8
mag_calc
6
CONTINUOUS
62
7
370
0
100
AcDbLine
10
10.5477672279
20
18.5477672279
11
21.1543690021
21
29.1543690021
0
SOLID
5
74
100
AcDbEntity
8
mag_calc
6
CONTINUOUS
62
7
370
0
100
AcDbTrace
10
14.790407915
20
22.790407915
30
0
11
13.0223168167
21
20.3158583261
31
0
12
12.3158583261
22
21.0223168167
32
0
13
12.3158583261
23
21.0223168167
33
0
0
SOLID
5
75
100
AcDbEntity
8
mag_calc
6
CONTINUOUS
62
7
370
0
100
AcDbTrace
10
16.911728315
20
24.911728315
30
0
11
18.6798194133
21
27.3862779039
31
0
12
19.3862779039
22
26.6798194133
32
0
13
19.3862779039
23
26.6798194133
33
0
0
MTEXT
5
76
100
AcDbEntity
8
mag_calc
6
CONTINUOUS
62
7
370
0
100
AcDbMText
10
15.0732506557
20
24.6288855743
30
0
40
1
41
0.444444444445
71
5
72
1
1
3
7
standard
210
0
220
0
230
1
50
45
73
2
44
1
0
ENDBLK
5
55
330
53
100
AcDbEntity
8
0
100
AcDbBlockEnd
0
BLOCK
5
57
330
56
100
AcDbEntity
8
0
100
AcDbBlockBegin
2
*D10
70
1
10
0
20
0
3
*D10
1

0
LINE
5
77
100
AcDbEntity
8
dim
6
CONTINUOUS
62
7
370
0
100
AcDbLine
10
12.5
20
22.1558398131
11
31.9
21
22.1558398131
0
SOLID
5
78
100
AcDbEntity
8
dim
6
CONTINUOUS
62
7
370
0
100
AcDbTrace
10
12.5
20
22.1558398131
30
0
11
15.5
21
22.6553814024
31
0
12
15.5
22
21.6562982238
32
0
13
15.5
23
21.6562982238
33
0
0
SOLID
5
79
100
AcDbEntity
8
dim
6
CONTINUOUS
62
7
370
0
100
AcDbTrace
10
31.9
20
22.1558398131
30
0
11
28.9
21
21.6562982238
31
0
12
28.9
22
22.6553814024
32
0
13
28.9
23
22.6553814024
33
0
0
MTEXT
5
7A
100
AcDbEntity
8
dim
6
CONTINUOUS
62
7
370
0
100
AcDbMText
10
22.2
20
23.2558398131
30
0
40
1
41
2.22222222222
71
5
72
1
1
19.4
7
standard
210
0
220
0
230
1
50
0
73
2
44
1
0
LINE
5
7B
100
AcDbEntity
8
dim
6
CONTINUOUS
62
7
370
0
100
AcDbLine
10
12.5
20
21.3842434017
11
12.5
21
22.7558398131
0
LINE
5
7C
100
AcDbEntity
8
dim
6
CONTINUOUS
62
7
370
0
100
AcDbLine
10
31.9
20
21.4944714605
11
31.9
21
22.7558398131
0
ENDBLK
5
58
330
56
100
AcDbEntity
8
0
100
AcDbBlockEnd
0
BLOCK
5
5A
330
59
100
AcDbEntity
8
0
100
AcDbBlockBegin
2
*D7
70
1
10
0
20
0
3
*D7
1

0
LINE
5
7D
100
AcDbEntity
8
mag_calc
6
CONTINUOUS
62
7
370
0
100
AcDbLine
10
18
20
12.0662950116
11
18
21
1.57228632781e-16
0
SOLID
5
7E
100
AcDbEntity
8
mag_calc
6
CONTINUOUS
62
7
370
0
100
AcDbTrace
10
18
20
12.0662950116
30
0
11
18.4995415893
21
9.06629501159
31
0
12
17.5004584107
22
9.06629501159
32
0
13
17.5004584107
23
9.06629501159
33
0
0
SOLID
5
7F
100
AcDbEntity
8
mag_calc
6
CONTINUOUS
62
7
370
0
100
AcDbTrace
10
18
20
1.57228632781e-16
30
0
11
17.5004584107
21
3
31
0
12
18.4995415893
22
3
32
0
13
18.4995415893
23
3
33
0
0
MTEXT
5
80
100
AcDbEntity
8
mag_calc
6
CONTINUOUS
62
7
370
0
100
AcDbMText
10
16.9
20
6.03314750579
30
0
40
1
41
4.44444444444
71
5
72
1
1
12.0663
7
standard
210
0
220
0
230
1
50
90
73
2
44
1
0
LINE
5
81
100
AcDbEntity
8
mag_calc
6
CONTINUOUS
62
7
370
0
100
AcDbLine
10
20.2127962875
20
12.0662950116
11
17.4
21
12.0662950116
0
LINE
5
82
100
AcDbEntity
8
mag_calc
6
CONTINUOUS
62
7
370
0
100
AcDbLine
10
20.2127962875
20
0
11
17.4
21
2.3070744073e-16
0
ENDBLK
5
5B
330
59
100
AcDbEntity
8
0
100
AcDbBlockEnd
0
BLOCK
5
5D
330
5C
100
AcDbEntity
8
0
100
AcDbBlockBegin
2
*D1
70
1
10
0
20
0
3
*D1
1

0
LINE
5
83
100
AcDbEntity
8
mag_calc
6
CONTINUOUS
62
7
370
0
100
AcDbLine
10
67
20
0
11
67
21
12
0
SOLID
5
84
100
AcDbEntity
8
mag_calc
6
CONTINUOUS
62
7
370
0
100
AcDbTrace
10
67
20
0
30
0
11
66.5004584107
21
3
31
0
12
67.4995415893
22
3
32
0
13
67.4995415893
23
3
33
0
0
SOLID
5
85
100
AcDbEntity
8
mag_calc
6
CONTINUOUS
62
7
370
0
100
AcDbTrace
10
67
20
12
30
0
11
67.4995415893
21
9
31
0
12
66.5004584107
22
9
32
0
13
66.5004584107
23
9
33
0
0
MTEXT
5
86
100
AcDbEntity
8
mag_calc
6
CONTINUOUS
62
7
370
0
100
AcDbMText
10
65.9
20
6
30
0
40
1
41
1
71
5
72
1
1
12
7
standard
210
0
220
0
230
1
50
90
73
2
44
1
0
LINE
5
87
100
AcDbEntity
8
mag_calc
6
CONTINUOUS
62
7
370
0
100
AcDbLine
10
60
20
0
11
67.6
21
0
0
LINE
5
88
100
AcDbEntity
8
mag_calc
6
CONTINUOUS
62
7
370
0
100
AcDbLine
10
60
20
12
11
67.6
21
12
0
ENDBLK
5
5E
330
5C
100
AcDbEntity
8
0
100
AcDbBlockEnd
0
BLOCK
5
60
330
5F
100
AcDbEntity
8
0
100
AcDbBlockBegin
2
*D5
70
1
10
0
20
0
3
*D5
1

0
LINE
5
89
100
AcDbEntity
8
mag_calc
6
CONTINUOUS
62
7
370
0
100
AcDbLine
10
20.21279635
20
-4
11
0
21
-4
0
SOLID
5
8A
100
AcDbEntity
8
mag_calc
6
CONTINUOUS
62
7
370
0
100
AcDbTrace
10
20.21279635
20
-4
30
0
11
17.21279635
21
-4.49954158933
31
0
12
17.21279635
22
-3.50045841067
32
0
13
17.21279635
23
-3.50045841067
33
0
0
SOLID
5
8B
100
AcDbEntity
8
mag_calc
6
CONTINUOUS
62
7
370
0
100
AcDbTrace
10
0
20
-4
30
0
11
3
21
-3.50045841067
31
0
12
3
22
-4.49954158933
32
0
13
3
23
-4.49954158933
33
0
0
MTEXT
5
8C
100
AcDbEntity
8
mag_calc
6
CONTINUOUS
62
7
370
0
100
AcDbMText
10
10.106398175
20
-2.9
30
0
40
1
41
4.44444444444
71
5
72
1
1
20.2128
7
standard
210
0
220
0
230
1
50
360
73
2
44
1
0
LINE
5
8D
100
AcDbEntity
8
mag_calc
6
CONTINUOUS
62
7
370
0
100
AcDbLine
10
20.21279635
20
0
11
20.21279635
21
-4.6
0
LINE
5
8E
100
AcDbEntity
8
mag_calc
6
CONTINUOUS
62
7
370
0
100
AcDbLine
10
0
20
0
11
-1.10218211923e-16
21
-4.6
0
ENDBLK
5
61
330
5F
100
AcDbEntity
8
0
100
AcDbBlockEnd
0
BLOCK
5
63
330
62
100
AcDbEntity
8
0
100
AcDbBlockBegin
2
*D8
70
1
10
0
20
0
3
*D8
1

0
LINE
5
8F
100
AcDbEntity
8
dim
6
CONTINUOUS
62
7
370
0
100
AcDbLine
10
-7.42617542933
20
11.5
11
-7.42617542933
21
-6
0
SOLID
5
90
100
AcDbEntity
8
dim
6
CONTINUOUS
62
7
370
0
100
AcDbTrace
10
-7.42617542933
20
5.5
30
0
11
-7.92571701866
21
8.5
31
0
12
-6.92663384001
22
8.5
32
0
13
-6.92663384001
23
8.5
33
0
0
SOLID
5
91
100
AcDbEntity
8
dim
6
CONTINUOUS
62
7
370
0
100
AcDbTrace
10
-7.42617542933
20
4.77872429027e-16
30
0
11
-6.92663384001
21
-3
31
0
12
-7.92571701866
22
-3
32
0
13
-7.92571701866
23
-3
33
0
0
MTEXT
5
92
100
AcDbEntity
8
dim
6
CONTINUOUS
62
7
370
0
100
AcDbMText
10
-8.52617542933
20
2.75
30
0
40
1
41
1.55555555556
71
5
72
1
1
5.5
7
standard
210
0
220
0
230
1
50
90
73
2
44
1
0
LINE
5
93
100
AcDbEntity
8
dim
6
CONTINUOUS
62
7
370
0
100
AcDbLine
10
0.173373745432
20
5.5
11
-8.02617542933
21
5.5
0
LINE
5
94
100
AcDbEntity
8
dim
6
CONTINUOUS
62
7
370
0
100
AcDbLine
10
0.260060618148
20
0
11
-8.02617542933
21
5.51351236975e-16
0
ENDBLK
5
64
330
62
100
AcDbEntity
8
0
100
AcDbBlockEnd
0
BLOCK
5
66
330
65
100
AcDbEntity
8
0
100
AcDbBlockBegin
2
*D6
70
1
10
0
20
0
3
*D6
1

0
LINE
5
95
100
AcDbEntity
8
mag_calc
6
CONTINUOUS
62
7
370
0
100
AcDbLine
10
20.2127962875
20
12.0662950116
11
25.0638097183
21
7.21528158084
0
LINE
5
96
100
AcDbEntity
8
mag_calc
6
CONTINUOUS
62
7
370
0
100
AcDbLine
10
23.924318753
20
15.777817477
11
28.7753321837
21
10.9268040463
0
LINE
5
97
100
AcDbEntity
8
mag_calc
6
CONTINUOUS
62
7
370
0
100
AcDbLine
10
20.3969049624
20
3.39690496243
11
32.5937088021
21
15.5937088021
0
SOLID
5
98
100
AcDbEntity
8
mag_calc
6
CONTINUOUS
62
7
370
0
100
AcDbTrace
10
24.6395456496
20
7.63954564955
30
0
11
22.8714545513
21
5.16499606069
31
0
12
22.1649960607
22
5.87145455129
32
0
13
22.1649960607
23
5.87145455129
33
0
0
SOLID
5
99
100
AcDbEntity
8
mag_calc
6
CONTINUOUS
62
7
370
0
100
AcDbTrace
10
28.351068115
20
11.351068115
30
0
11
30.1191592133
21
13.8256177039
31
0
12
30.8256177039
22
13.1191592133
32
0
13
30.8256177039
23
13.1191592133
33
0
0
MTEXT
5
9A
100
AcDbEntity
8
mag_calc
6
CONTINUOUS
62
7
370
0
100
AcDbMText
10
25.717489423
20
10.2731243416
30
0
40
1
41
4
71
5
72
1
1
5.2489
7
standard
210
0
220
0
230
1
50
45
73
2
44
1
0
ENDBLK
5
67
330
65
100
AcDbEntity
8
0
100
AcDbBlockEnd
0
BLOCK
5
69
330
68
100
AcDbEntity
8
0
100
AcDbBlockBegin
2
*D2
70
1
10
0
20
0
3
*D2
1

0
LINE
5
9B
100
AcDbEntity
8
mag_calc
6
CONTINUOUS
62
7
370
0
100
AcDbLine
10
0
20
-10
11
60
21
-10
0
SOLID
5
9C
100
AcDbEntity
8
mag_calc
6
CONTINUOUS
62
7
370
0
100
AcDbTrace
10
0
20
-10
30
0
11
3
21
-9.50045841067
31
0
12
3
22
-10.4995415893
32
0
13
3
23
-10.4995415893
33
0
0
SOLID
5
9D
100
AcDbEntity
8
mag_calc
6
CONTINUOUS
62
7
370
0
100
AcDbTrace
10
60
20
-10
30
0
11
57
21
-10.4995415893
31
0
12
57
22
-9.50045841067
32
0
13
57
23
-9.50045841067
33
0
0
MTEXT
5
9E
100
AcDbEntity
8
mag_calc
6
CONTINUOUS
62
7
370
0
100
AcDbMText
10
30
20
-8.9
30
0
40
1
41
1.22222222222
71
5
72
1
1
60
7
standard
210
0
220
0
230
1
50
0
73
2
44
1
0
LINE
5
9F
100
AcDbEntity
8
mag_calc
6
CONTINUOUS
62
7
370
0
100
AcDbLine
10
0
20
0
11
-1.10218211923e-16
21
-10.6
0
LINE
5
A0
100
AcDbEntity
8
mag_calc
6
CONTINUOUS
62
7
370
0
100
AcDbLine
10
60
20
0
11
60
21
-10.6
0
ENDBLK
5
6A
330
68
100
AcDbEntity
8
0
100
AcDbBlockEnd
0
BLOCK
5
6C
330
6B
100
AcDbEntity
8
0
100
AcDbBlockBegin
2
*D3
70
1
10
0
20
0
3
*D3
1

0
LINE
5
A1
100
AcDbEntity
8
mag_calc
6
CONTINUOUS
62
7
370
0
100
AcDbLine
10
26.7527459059
20
15.0707107241
11
30.7652816596
21
19.0832464778
0
LINE
5
A2
100
AcDbEntity
8
mag_calc
6
CONTINUOUS
62
7
370
0
100
AcDbLine
10
23.217212
20
18.60624463
11
27.2297477537
21
22.6187803837
0
LINE
5
A3
100
AcDbEntity
8
mag_calc
6
CONTINUOUS
62
7
370
0
100
AcDbLine
10
34.5836582781
20
14.4163417219
11
22.5628429979
21
26.4371570021
0
SOLID
5
A4
100
AcDbEntity
8
mag_calc
6
CONTINUOUS
62
7
370
0
100
AcDbTrace
10
30.3410175909
20
18.6589824091
30
0
11
32.8155671798
21
16.8908913108
31
0
12
32.1091086892
22
16.1844328202
32
0
13
32.1091086892
23
16.1844328202
33
0
0
SOLID
5
A5
100
AcDbEntity
8
mag_calc
6
CONTINUOUS
62
7
370
0
100
AcDbTrace
10
26.805483685
20
22.194516315
30
0
11
24.3309340961
21
23.9626074133
31
0
12
25.0373925867
22
24.6690659039
32
0
13
25.0373925867
23
24.6690659039
33
0
0
MTEXT
5
A6
100
AcDbEntity
8
mag_calc
6
CONTINUOUS
62
7
370
0
100
AcDbMText
10
29.3510680973
20
21.2045668213
30
0
40
1
41
0.444444444445
71
5
72
1
1
5
7
standard
210
0
220
0
230
1
50
315
73
2
44
1
0
ENDBLK
5
6D
330
6B
100
AcDbEntity
8
0
100
AcDbBlockEnd
0
BLOCK
5
6F
330
6E
100
AcDbEntity
8
0
100
AcDbBlockBegin
2
*D9
70
1
10
0
20
0
3
*D9
1

0
LINE
5
A7
100
AcDbEntity
8
dim
6
CONTINUOUS
62
7
370
0
100
AcDbLine
10
6.15160750393
20
10.75
11
6.15160750393
21
-6
0
SOLID
5
A8
100
AcDbEntity
8
dim
6
CONTINUOUS
62
7
370
0
100
AcDbTrace
10
6.15160750393
20
4.75
30
0
11
5.65206591461
21
7.75
31
0
12
6.65114909326
22
7.75
32
0
13
6.65114909326
23
7.75
33
0
0
SOLID
5
A9
100
AcDbEntity
8
dim
6
CONTINUOUS
62
7
370
0
100
AcDbTrace
10
6.15160750393
20
-5.61410278462e-17
30
0
11
6.65114909326
21
-3
31
0
12
5.65206591461
22
-3
32
0
13
5.65206591461
23
-3
33
0
0
MTEXT
5
AA
100
AcDbEntity
8
dim
6
CONTINUOUS
62
7
370
0
100
AcDbMText
10
5.05160750393
20
2.375
30
0
40
1
41
2.44444444444
71
5
72
1
1
4.75
7
standard
210
0
220
0
230
1
50
90
73
2
44
1
0
LINE
5
AB
100
AcDbEntity
8
dim
6
CONTINUOUS
62
7
370
0
100
AcDbLine
10
5.0793089482
20
4.75
11
6.75160750393
21
4.75
0
LINE
5
AC
100
AcDbEntity
8
dim
6
CONTINUOUS
62
7
370
0
100
AcDbLine
10
5.24861924647
20
0
11
6.75160750393
21
-5.61410278462e-17
0
ENDBLK
5
70
330
6E
100
AcDbEntity
8
0
100
AcDbBlockEnd
0
ENDSEC
0
SECTION
2
ENTITIES
0
LINE
5
AD
100
AcDbEntity
8
old_einzel_mid
6
ByLayer
62
256
370
-1
100
AcDbLine
10
393.2021362
20
30
11
349.2021362
21
30
0
ARC
5
AE
100
AcDbEntity
8
old_einzel_mid
6
ByLayer
62
256
370
-1
100
AcDbCircle
10
393.2021362
20
37
40
3
100
AcDbArc
50
360
51
90
0
ARC
5
AF
100
AcDbEntity
8
old_einzel_mid
6
ByLayer
62
256
370
-1
100
AcDbCircle
10
393.2021362
20
33
40
3
100
AcDbArc
50
270
51
360
0
ARC
5
B0
100
AcDbEntity
8
old_einzel_mid
6
ByLayer
62
256
370
-1
100
AcDbCircle
10
349.2021362
20
37
40
3
100
AcDbArc
50
90
51
180
0
ARC
5
B1
100
AcDbEntity
8
old_einzel_mid
6
ByLayer
62
256
370
-1
100
AcDbCircle
10
349.2021362
20
33
40
3
100
AcDbArc
50
180
51
270
0
LINE
5
B2
100
AcDbEntity
8
old_einzel_mid
6
ByLayer
62
256
370
-1
100
AcDbLine
10
393.2021362
20
40
11
349.2021362
21
40
0
LINE
5
B3
100
AcDbEntity
8
old_einzel_mid
6
ByLayer
62
256
370
-1
100
AcDbLine
10
396.2021362
20
37
11
396.2021362
21
33
0
LINE
5
B4
100
AcDbEntity
8
old_einzel_mid
6
ByLayer
62
256
370
-1
100
AcDbLine
10
346.2021362
20
37
11
346.2021362
21
33
0
LINE
5
B5
100
AcDbEntity
8
old_einzel_gnd
6
ByLayer
62
256
370
-1
100
AcDbLine
10
414.2021362
20
40
11
414.2021362
21
40
0
LINE
5
B6
100
AcDbEntity
8
old_einzel_gnd
6
ByLayer
62
256
370
-1
100
AcDbLine
10
328.2021362
20
40
11
328.2021362
21
40
0
LINE
5
B7
100
AcDbEntity
8
old_einzel_gnd
6
ByLayer
62
256
370
-1
100
AcDbLine
10
414.2021362
20
30
11
431.2021362
21
30
0
ARC
5
B8
100
AcDbEntity
8
old_einzel_gnd
6
ByLayer
62
256
370
-1
100
AcDbCircle
10
414.2021362
20
37
40
3
100
AcDbArc
50
90
51
180
0
ARC
5
B9
100
AcDbEntity
8
old_einzel_gnd
6
ByLayer
62
256
370
-1
100
AcDbCircle
10
414.2021362
20
33
40
3
100
AcDbArc
50
180
51
270
0
ARC
5
BA
100
AcDbEntity
8
old_einzel_gnd
6
ByLayer
62
256
370
-1
100
AcDbCircle
10
328.2021362
20
37
40
3
100
AcDbArc
50
360
51
90
0
ARC
5
BB
100
AcDbEntity
8
old_einzel_gnd
6
ByLayer
62
256
370
-1
100
AcDbCircle
10
328.2021362
20
33
40
3
100
AcDbArc
50
270
51
360
0
LINE
5
BC
100
AcDbEntity
8
old_einzel_gnd
6
ByLayer
62
256
370
-1
100
AcDbLine
10
414.2021362
20
40
11
431.2021362
21
40
0
LINE
5
BD
100
AcDbEntity
8
old_einzel_gnd
6
ByLayer
62
256
370
-1
100
AcDbLine
10
431.2021362
20
30
11
431.2021362
21
40
0
LINE
5
BE
100
AcDbEntity
8
old_einzel_gnd
6
ByLayer
62
256
370
-1
100
AcDbLine
10
411.2021362
20
37
11
411.2021362
21
33
0
LINE
5
BF
100
AcDbEntity
8
old_einzel_gnd
6
ByLayer
62
256
370
-1
100
AcDbLine
10
295.2021362
20
15
11
296.2021362
21
15
0
LINE
5
C0
100
AcDbEntity
8
old_einzel_gnd
6
ByLayer
62
256
370
-1
100
AcDbLine
10
296.2021362
20
30
11
296.2021362
21
15
0
LINE
5
C1
100
AcDbEntity
8
old_einzel_gnd
6
ByLayer
62
256
370
-1
100
AcDbLine
10
296.2021362
20
30
11
328.2021362
21
30
0
LINE
5
C2
100
AcDbEntity
8
old_einzel_gnd
6
ByLayer
62
256
370
-1
100
AcDbLine
10
331.2021362
20
33
11
331.2021362
21
37
0
LINE
5
C3
100
AcDbEntity
8
old_einzel_gnd
6
ByLayer
62
256
370
-1
100
AcDbLine
10
295.2021362
20
40
11
328.2021362
21
40
0
LINE
5
C4
100
AcDbEntity
8
old_einzel_gnd
6
ByLayer
62
256
370
-1
100
AcDbLine
10
295.2021362
20
40
11
295.2021362
21
15
0
LINE
5
C5
100
AcDbEntity
8
mag_calc
6
ByLayer
62
256
370
-1
100
AcDbLine
10
0
20
0
11
60
21
0
0
LINE
5
C6
100
AcDbEntity
8
mag_calc
6
ByLayer
62
256
370
-1
100
AcDbLine
10
60
20
0
11
60
21
12
0
LINE
5
C7
100
AcDbEntity
8
mag_calc
6
ByLayer
62
256
370
-1
100
AcDbLine
10
60
20
12
11
0
21
12
0
LINE
5
C8
100
AcDbEntity
8
mag_calc
6
ByLayer
62
256
370
-1
100
AcDbLine
10
0
20
12
11
0
21
0
0
DIMENSION
5
C9
100
AcDbEntity
8
mag_calc
6
ByLayer
62
256
370
-1
100
AcDbDimension
2
*D1
10
67
20
12
30
0
11
65.9
21
6
31
0
70
32
71
5
72
0
3
Standard
53
0
210
0
220
0
230
1
100
AcDbAlignedDimension
13
60
23
0
33
0
14
60
24
12
34
0
50
90
100
AcDbRotatedDimension
0
DIMENSION
5
CA
100
AcDbEntity
8
mag_calc
6
ByLayer
62
256
370
-1
100
AcDbDimension
2
*D2
10
60
20
-10
30
0
11
30
21
-8.9
31
0
70
32
71
5
72
0
3
Standard
53
0
210
0
220
0
230
1
100
AcDbAlignedDimension
13
0
23
0
33
0
14
60
24
0
34
0
100
AcDbRotatedDimension
0
DIMENSION
5
CB
100
AcDbEntity
8
mag_calc
6
ByLayer
62
256
370
-1
100
AcDbDimension
2
*D3
10
26.805483685
20
22.194516315
30
0
11
29.3510680973
21
21.2045668213
31
0
70
33
71
5
72
0
3
Standard
53
0
210
0
220
0
230
1
100
AcDbAlignedDimension
13
26.7527459059
23
15.0707107241
33
0
14
23.217212
24
18.60624463
34
0
0
DIMENSION
5
CC
100
AcDbEntity
8
mag_calc
6
ByLayer
62
256
370
-1
100
AcDbDimension
2
*D4
10
16.911728315
20
24.911728315
30
0
11
15.0732506557
21
24.6288855743
31
0
70
33
71
5
72
0
3
Standard
53
0
210
0
220
0
230
1
100
AcDbAlignedDimension
13
21.0958916
23
16.48492423
33
0
14
23.217212
24
18.60624463
34
0
0
LINE
5
CD
100
AcDbEntity
8
mag_calc
6
ByLayer
62
256
370
-1
100
AcDbLine
10
19.3297011
20
16.48492423
11
21.0958916
21
16.48492423
0
LINE
5
CE
100
AcDbEntity
8
mag_calc
6
ByLayer
62
256
370
-1
100
AcDbLine
10
20.21279635
20
16.48492423
11
20.21279635
21
0
0
DIMENSION
5
CF
100
AcDbEntity
8
mag_calc
6
ByLayer
62
256
370
-1
100
AcDbDimension
2
*D5
10
-2e-16
20
-4
30
0
11
10.106398175
21
-2.9
31
0
70
32
71
5
72
0
3
Standard
53
0
210
0
220
0
230
1
100
AcDbAlignedDimension
13
20.21279635
23
0
33
0
14
0
24
0
34
0
100
AcDbRotatedDimension
0
LINE
5
D0
100
AcDbEntity
8
mag_calc
6
ByLayer
62
256
370
-1
100
AcDbLine
10
23.217212
20
18.60624463
11
24.6314255059
21
12.9493903241
0
LINE
5
D1
100
AcDbEntity
8
mag_calc
6
ByLayer
62
256
370
-1
100
AcDbLine
10
17.2083808
20
18.60624463
11
15.7941671941
21
12.9493903241
0
LINE
5
D2
100
AcDbEntity
8
mag_calc
6
ByLayer
62
256
370
-1
100
AcDbLine
10
20.2127962875
20
12.0662950116
11
24.984978953
21
16.838477677
0
LINE
5
D3
100
AcDbEntity
8
mag_calc
6
ByLayer
62
256
370
-1
100
AcDbLine
10
20.2127962875
20
12.0662950116
11
15.4406138887
21
16.8384776354
0
DIMENSION
5
D4
100
AcDbEntity
8
mag_calc
6
ByLayer
62
256
370
-1
100
AcDbDimension
2
*D6
10
28.351068115
20
11.351068115
30
0
11
25.717489423
21
10.2731243416
31
0
70
33
71
5
72
0
3
Standard
53
0
210
0
220
0
230
1
100
AcDbAlignedDimension
13
20.2127962875
23
12.0662950116
33
0
14
23.924318753
24
15.777817477
34
0
0
DIMENSION
5
D5
100
AcDbEntity
8
mag_calc
6
ByLayer
62
256
370
-1
100
AcDbDimension
2
*D7
10
18
20
3e-16
30
0
11
16.9
21
6.03314750579
31
0
70
32
71
5
72
0
3
Standard
53
0
210
0
220
0
230
1
100
AcDbAlignedDimension
13
20.2127962875
23
12.0662950116
33
0
14
20.2127962875
24
0
34
0
50
90
100
AcDbRotatedDimension
0
LINE
5
D6
100
AcDbEntity
8
magnets
6
ByLayer
62
256
370
-1
100
AcDbLine
10
15.5937554
20
16.48492423
11
17.7150758
21
18.60624463
0
LINE
5
D7
100
AcDbEntity
8
magnets
6
ByLayer
62
256
370
-1
100
AcDbLine
10
13.8275649
20
16.48492423
11
11.7062446
21
18.60624463
0
ARC
5
D8
100
AcDbEntity
8
plasma
6
ByLayer
62
256
370
-1
100
AcDbCircle
10
12.7
20
51.5
40
10
100
AcDbArc
50
270
51
360
0
LINE
5
D9
100
AcDbEntity
8
plasma
6
ByLayer
62
256
370
-1
100
AcDbLine
10
0.4
20
5.5
11
3.4
21
10.6961524
0
LINE
5
DA
100
AcDbEntity
8
plasma
6
ByLayer
62
256
370
-1
100
AcDbLine
10
3.4
20
41.5
11
3.4
21
10.6961524
0
LINE
5
DB
100
AcDbEntity
8
plasma
6
ByLayer
62
256
370
-1
100
AcDbLine
10
12.7
20
41.5
11
3.4
21
41.5
0
LINE
5
DC
100
AcDbEntity
8
plasma
6
ByLayer
62
256
370
-1
100
AcDbLine
10
22.7
20
95
11
22.7
21
51.5
0
LINE
5
DD
100
AcDbEntity
8
puller
6
ByLayer
62
256
370
-1
100
AcDbLine
10
10.2
20
39
11
17.2
21
39
0
ARC
5
DE
100
AcDbEntity
8
puller
6
ByLayer
62
256
370
-1
100
AcDbCircle
10
17.2
20
58
40
19
100
AcDbArc
50
270
51
360
0
LINE
5
DF
100
AcDbEntity
8
puller
6
ByLayer
62
256
370
-1
100
AcDbLine
10
31.9
20
7.8
11
31.9
21
27.7
0
LINE
5
E0
100
AcDbEntity
8
puller
6
ByLayer
62
256
370
-1
100
AcDbLine
10
33.1
20
7
11
32.7
21
7
0
ARC
5
E1
100
AcDbEntity
8
puller
6
ByLayer
62
256
370
-1
100
AcDbCircle
10
33.1
20
7.8
40
0.8
100
AcDbArc
50
270
51
360
0
ARC
5
E2
100
AcDbEntity
8
puller
6
ByLayer
62
256
370
-1
100
AcDbCircle
10
32.7
20
7.8
40
0.8
100
AcDbArc
50
180
51
270
0
LINE
5
E3
100
AcDbEntity
8
puller
6
ByLayer
62
256
370
-1
100
AcDbLine
10
16.7
20
11
11
16.7
21
12
0
ARC
5
E4
100
AcDbEntity
8
puller
6
ByLayer
62
256
370
-1
100
AcDbCircle
10
30.2
20
64.2700577
40
19
100
AcDbArc
50
315
51
360
0
LINE
5
E5
100
AcDbEntity
8
puller
6
ByLayer
62
256
370
-1
100
AcDbLine
10
7.4
20
9.9622374
11
7.4
21
34.975
0
LINE
5
E6
100
AcDbEntity
8
puller
6
ByLayer
62
256
370
-1
100
AcDbLine
10
9.7
20
7.5
11
7.0964466
21
4.8964466
0
ARC
5
E7
100
AcDbEntity
8
puller
6
ByLayer
62
256
370
-1
100
AcDbCircle
10
6.9
20
9.9622374
40
0.5
100
AcDbArc
50
314
51
360
0
ARC
5
E8
100
AcDbEntity
8
puller
6
ByLayer
62
256
370
-1
100
AcDbCircle
10
6.7428932
20
5.25
40
0.5
100
AcDbArc
50
270
51
315
0
LINE
5
E9
100
AcDbEntity
8
puller
6
ByLayer
62
256
370
-1
100
AcDbLine
10
7.2473291
20
9.6025675
11
2.5526708
21
5.0689886
0
ARC
5
EA
100
AcDbEntity
8
puller
6
ByLayer
62
256
370
-1
100
AcDbCircle
10
10.2
20
37
40
2
100
AcDbArc
50
90
51
180
0
LINE
5
EB
100
AcDbEntity
8
puller
6
ByLayer
62
256
370
-1
100
AcDbLine
10
9.7
20
7.5
11
9.7
21
11
0
LINE
5
EC
100
AcDbEntity
8
puller
6
ByLayer
62
256
370
-1
100
AcDbLine
10
9.7
20
11
11
16.7
21
11
0
LINE
5
ED
100
AcDbEntity
8
puller
6
ByLayer
62
256
370
-1
100
AcDbLine
10
12.5
20
12
11
16.7
21
12
0
LINE
5
EE
100
AcDbEntity
8
puller
6
ByLayer
62
256
370
-1
100
AcDbLine
10
33.9
20
7.8
11
33.9
21
41.1000001
0
LINE
5
EF
100
AcDbEntity
8
puller
6
ByLayer
62
256
370
-1
100
AcDbLine
10
43.6350288
20
50.8350289
11
33.9
21
41.1000001
0
LINE
5
F0
100
AcDbEntity
8
puller
6
ByLayer
62
256
370
-1
100
AcDbLine
10
12.5
20
12
11
12.5
21
27.7
0
LINE
5
F1
100
AcDbEntity
8
puller
6
ByLayer
62
256
370
-1
100
AcDbLine
10
31.9
20
27.7
11
12.5
21
27.7
0
LINE
5
F2
100
AcDbEntity
8
puller
6
ByLayer
62
256
370
-1
100
AcDbLine
10
7.4
20
34.975
11
8.2
21
34.975
0
LINE
5
F3
100
AcDbEntity
8
puller
6
ByLayer
62
256
370
-1
100
AcDbLine
10
8.2
20
34.975
11
8.2
21
37
0
LINE
5
F4
100
AcDbEntity
8
puller
6
ByLayer
62
256
370
-1
100
AcDbLine
10
49.2
20
95
11
36.2
21
95
0
LINE
5
F5
100
AcDbEntity
8
puller
6
ByLayer
62
256
370
-1
100
AcDbLine
10
49.2
20
64.2700577
11
49.2
21
95
0
LINE
5
F6
100
AcDbEntity
8
puller
6
ByLayer
62
256
370
-1
100
AcDbLine
10
36.2
20
95
11
36.2
21
58
0
ARC
5
F7
100
AcDbEntity
8
puller
6
ByLayer
62
256
370
-1
100
AcDbCircle
10
2.9
20
4.7093187
40
0.5
100
AcDbArc
50
134
51
175.33310768
0
LINE
5
F8
100
AcDbEntity
8
puller
6
ByLayer
62
256
370
-1
100
AcDbLine
10
2.40165771619
20
4.75
11
6.7428932
21
4.75
0
ARC
5
F9
100
AcDbEntity
8
ext_einzel
6
ByLayer
62
256
370
-1
100
AcDbCircle
10
28.6917801
20
8.75
40
0.75
100
AcDbArc
50
360
51
90
0
ARC
5
FA
100
AcDbEntity
8
ext_einzel
6
ByLayer
62
256
370
-1
100
AcDbCircle
10
28.6917801
20
8.75
40
0.75
100
AcDbArc
50
270
51
360
0
ARC
5
FB
100
AcDbEntity
8
ext_einzel
6
ByLayer
62
256
370
-1
100
AcDbCircle
10
14.1917801
20
7.75
40
0.75
100
AcDbArc
50
90
51
180
0
ARC
5
FC
100
AcDbEntity
8
ext_einzel
6
ByLayer
62
256
370
-1
100
AcDbCircle
10
14.1917801
20
7.75
40
0.75
100
AcDbArc
50
180
51
270
0
ARC
5
FD
100
AcDbEntity
8
accel
6
ByLayer
62
256
370
-1
100
AcDbCircle
10
68.2
20
54.2700577
40
19
100
AcDbArc
50
315
51
360
0
LINE
5
FE
100
AcDbEntity
8
accel
6
ByLayer
62
256
370
-1
100
AcDbLine
10
81.6350288
20
40.8350289
11
71.6578643
21
30.8578644
0
ARC
5
FF
100
AcDbEntity
8
accel
6
ByLayer
62
256
370
-1
100
AcDbCircle
10
45
20
7.5
40
0.5
100
AcDbArc
50
180
51
270
0
ARC
5
100
100
AcDbEntity
8
accel
6
ByLayer
62
256
370
-1
100
AcDbCircle
10
50
20
7.5
40
0.5
100
AcDbArc
50
270
51
360
0
LINE
5
101
100
AcDbEntity
8
accel
6
ByLayer
62
256
370
-1
100
AcDbLine
10
45
20
7
11
50
21
7
0
ARC
5
102
100
AcDbEntity
8
accel
6
ByLayer
62
256
370
-1
100
AcDbCircle
10
57.5157287
20
45
40
20
100
AcDbArc
50
270
51
315
0
LINE
5
103
100
AcDbEntity
8
accel
6
ByLayer
62
256
370
-1
100
AcDbLine
10
49.2
20
29
11
55.2
21
29
0
LINE
5
104
100
AcDbEntity
8
accel
6
ByLayer
62
256
370
-1
100
AcDbLine
10
56.9
20
25
11
57.5157287
21
25
0
ARC
5
105
100
AcDbEntity
8
accel
6
ByLayer
62
256
370
-1
100
AcDbCircle
10
49.2
20
26
40
3
100
AcDbArc
50
90
51
180
0
LINE
5
106
100
AcDbEntity
8
accel
6
ByLayer
62
256
370
-1
100
AcDbLine
10
44.5
20
7.5
11
44.5
21
24.95
0
LINE
5
107
100
AcDbEntity
8
accel
6
ByLayer
62
256
370
-1
100
AcDbLine
10
46.2
20
24.95
11
46.2
21
26
0
LINE
5
108
100
AcDbEntity
8
accel
6
ByLayer
62
256
370
-1
100
AcDbLine
10
44.5
20
24.95
11
46.2
21
24.95
0
LINE
5
109
100
AcDbEntity
8
accel
6
ByLayer
62
256
370
-1
100
AcDbLine
10
50.5
20
7.5
11
50.5
21
19
0
ARC
5
10A
100
AcDbEntity
8
accel
6
ByLayer
62
256
370
-1
100
AcDbCircle
10
55.2
20
48
40
19
100
AcDbArc
50
270
51
360
0
LINE
5
10B
100
AcDbEntity
8
accel
6
ByLayer
62
256
370
-1
100
AcDbLine
10
50.5
20
19
11
56.9
21
19
0
LINE
5
10C
100
AcDbEntity
8
accel
6
ByLayer
62
256
370
-1
100
AcDbLine
10
56.9
20
19
11
56.9
21
25
0
LINE
5
10D
100
AcDbEntity
8
accel
6
ByLayer
62
256
370
-1
100
AcDbLine
10
74.2
20
48
11
74.2
21
95
0
LINE
5
10E
100
AcDbEntity
8
accel
6
ByLayer
62
256
370
-1
100
AcDbLine
10
87.2
20
54.2700577
11
87.2
21
95
0
LINE
5
10F
100
AcDbEntity
8
accel
6
ByLayer
62
256
370
-1
100
AcDbLine
10
87.2
20
95
11
74.2
21
95
0
LINE
5
110
100
AcDbEntity
8
gnd
6
ByLayer
62
256
370
-1
100
AcDbLine
10
145.7
20
9
11
148.7
21
9
0
ARC
5
111
100
AcDbEntity
8
gnd
6
ByLayer
62
256
370
-1
100
AcDbCircle
10
148.7
20
10.5
40
1.5
100
AcDbArc
50
270
51
360
0
ARC
5
112
100
AcDbEntity
8
gnd
6
ByLayer
62
256
370
-1
100
AcDbCircle
10
145.7
20
10.5
40
1.5
100
AcDbArc
50
180
51
270
0
LINE
5
113
100
AcDbEntity
8
gnd
6
ByLayer
62
256
370
-1
100
AcDbLine
10
75.7
20
9
11
64.7
21
9
0
ARC
5
114
100
AcDbEntity
8
gnd
6
ByLayer
62
256
370
-1
100
AcDbCircle
10
75.7
20
12
40
3
100
AcDbArc
50
270
51
360
0
LINE
5
115
100
AcDbEntity
8
gnd
6
ByLayer
62
256
370
-1
100
AcDbLine
10
78.7
20
17
11
78.7
21
12
0
ARC
5
116
100
AcDbEntity
8
gnd
6
ByLayer
62
256
370
-1
100
AcDbCircle
10
64.7
20
11.5
40
2.5
100
AcDbArc
50
180
51
270
0
LINE
5
117
100
AcDbEntity
8
gnd
6
ByLayer
62
256
370
-1
100
AcDbLine
10
71.2
20
14
11
64.7
21
14
0
ARC
5
118
100
AcDbEntity
8
gnd
6
ByLayer
62
256
370
-1
100
AcDbCircle
10
64.7
20
11.5
40
2.5
100
AcDbArc
50
90
51
180
0
LINE
5
119
100
AcDbEntity
8
gnd
6
ByLayer
62
256
370
-1
100
AcDbLine
10
144.2
20
10.5
11
144.2
21
45
0
LINE
5
11A
100
AcDbEntity
8
gnd
6
ByLayer
62
256
370
-1
100
AcDbLine
10
109.156140338
20
45
11
144.2
21
45
0
LINE
5
11B
100
AcDbEntity
8
gnd
6
ByLayer
62
256
370
-1
100
AcDbLine
10
112.7
20
50.8239436809
11
112.7
21
95
0
LINE
5
11C
100
AcDbEntity
8
gnd
6
ByLayer
62
256
370
-1
100
AcDbLine
10
521.4978638
20
95
11
521.4978638
21
80
0
LINE
5
11D
100
AcDbEntity
8
gnd
6
ByLayer
62
256
370
-1
100
AcDbLine
10
258.7
20
80
11
521.4978638
21
80
0
LINE
5
11E
100
AcDbEntity
8
gnd
6
ByLayer
62
256
370
-1
100
AcDbLine
10
112.7
20
95
11
521.4978638
21
95
0
LINE
5
11F
100
AcDbEntity
8
gnd
6
ByLayer
62
256
370
-1
100
AcDbLine
10
71.2
20
14
11
112.7
21
50.8239436809
0
LINE
5
120
100
AcDbEntity
8
gnd
6
ByLayer
62
256
370
-1
100
AcDbLine
10
78.7
20
17
11
109.156140338
21
45
0
LINE
5
121
100
AcDbEntity
8
einzel_1
6
ByLayer
62
256
370
-1
100
AcDbLine
10
127.2
20
15
11
93.2
21
15
0
ARC
5
122
100
AcDbEntity
8
einzel_1
6
ByLayer
62
256
370
-1
100
AcDbCircle
10
127.2
20
18
40
3
100
AcDbArc
50
360
51
90
0
ARC
5
123
100
AcDbEntity
8
einzel_1
6
ByLayer
62
256
370
-1
100
AcDbCircle
10
127.2
20
18
40
3
100
AcDbArc
50
270
51
360
0
ARC
5
124
100
AcDbEntity
8
einzel_1
6
ByLayer
62
256
370
-1
100
AcDbCircle
10
93.2
20
18
40
3
100
AcDbArc
50
90
51
180
0
ARC
5
125
100
AcDbEntity
8
einzel_1
6
ByLayer
62
256
370
-1
100
AcDbCircle
10
93.2
20
18
40
3
100
AcDbArc
50
180
51
270
0
LINE
5
126
100
AcDbEntity
8
einzel_1
6
ByLayer
62
256
370
-1
100
AcDbLine
10
93.2
20
21
11
127.2
21
21
0
LINE
5
127
100
AcDbEntity
8
einzel_2
6
ByLayer
62
256
370
-1
100
AcDbLine
10
248.2
20
15
11
221.2
21
15
0
LINE
5
128
100
AcDbEntity
8
einzel_2
6
ByLayer
62
256
370
-1
100
AcDbLine
10
249.7
20
16.5
11
249.7
21
16.5
0
LINE
5
129
100
AcDbEntity
8
einzel_2
6
ByLayer
62
256
370
-1
100
AcDbLine
10
219.7
20
16.5
11
219.7
21
16.5
0
ARC
5
12A
100
AcDbEntity
8
einzel_2
6
ByLayer
62
256
370
-1
100
AcDbCircle
10
248.2
20
16.5
40
1.5
100
AcDbArc
50
270
51
360
0
ARC
5
12B
100
AcDbEntity
8
einzel_2
6
ByLayer
62
256
370
-1
100
AcDbCircle
10
248.2
20
16.5
40
1.5
100
AcDbArc
50
360
51
90
0
ARC
5
12C
100
AcDbEntity
8
einzel_2
6
ByLayer
62
256
370
-1
100
AcDbCircle
10
221.2
20
16.5
40
1.5
100
AcDbArc
50
90
51
180
0
ARC
5
12D
100
AcDbEntity
8
einzel_2
6
ByLayer
62
256
370
-1
100
AcDbCircle
10
221.2
20
16.5
40
1.5
100
AcDbArc
50
180
51
270
0
LINE
5
12E
100
AcDbEntity
8
einzel_2
6
ByLayer
62
256
370
-1
100
AcDbLine
10
229.2
20
21
11
229.2
21
21
0
LINE
5
12F
100
AcDbEntity
8
einzel_2
6
ByLayer
62
256
370
-1
100
AcDbLine
10
227.7
20
19.5
11
227.7
21
19.5
0
LINE
5
130
100
AcDbEntity
8
einzel_2
6
ByLayer
62
256
370
-1
100
AcDbLine
10
230.7
20
19.5
11
230.7
21
18
0
ARC
5
131
100
AcDbEntity
8
einzel_2
6
ByLayer
62
256
370
-1
100
AcDbCircle
10
229.2
20
19.5
40
1.5
100
AcDbArc
50
360
51
90
0
ARC
5
132
100
AcDbEntity
8
einzel_2
6
ByLayer
62
256
370
-1
100
AcDbCircle
10
229.2
20
19.5
40
1.5
100
AcDbArc
50
90
51
180
0
LINE
5
133
100
AcDbEntity
8
einzel_2
6
ByLayer
62
256
370
-1
100
AcDbLine
10
226.2
20
18
11
221.2
21
18
0
ARC
5
134
100
AcDbEntity
8
einzel_2
6
ByLayer
62
256
370
-1
100
AcDbCircle
10
226.2
20
19.5
40
1.5
100
AcDbArc
50
270
51
360
0
LINE
5
135
100
AcDbEntity
8
einzel_2
6
ByLayer
62
256
370
-1
100
AcDbLine
10
248.2
20
18
11
230.7
21
18
0
LINE
5
136
100
AcDbEntity
8
plasma
6
ByLayer
62
256
370
-1
100
AcDbLine
10
22.7
20
95
11
-5.5021362
21
95
0
LINE
5
137
100
AcDbEntity
8
plasma
6
ByLayer
62
256
370
-1
100
AcDbLine
10
-5.5021362
20
8
11
-5.5021362
21
95
0
LINE
5
138
100
AcDbEntity
8
center
6
ByLayer
62
256
370
-1
100
AcDbLine
10
-15.5021362
20
0
11
551.4978638
21
0
0
LINE
5
139
100
AcDbEntity
8
magnets
6
ByLayer
62
256
370
-1
100
AcDbLine
10
8.17071069407
20
15.0707107241
11
11.7
21
18.60000003
0
LINE
5
13A
100
AcDbEntity
8
magnets
6
ByLayer
62
256
370
-1
100
AcDbLine
10
10.2920309941
20
12.9493903241
11
13.8275649
21
16.48492423
0
LINE
5
13B
100
AcDbEntity
8
magnets
6
ByLayer
62
256
370
-1
100
AcDbLine
10
10.2920309941
20
12.9493903241
11
8.17071069407
21
15.0707107241
0
LINE
5
13C
100
AcDbEntity
8
magnets
6
ByLayer
62
256
370
-1
100
AcDbLine
10
15.5937554
20
16.48492423
11
19.1292893059
21
12.9493903241
0
LINE
5
13D
100
AcDbEntity
8
magnets
6
ByLayer
62
256
370
-1
100
AcDbLine
10
21.2506097059
20
15.0707107241
11
17.7150758
21
18.60624463
0
LINE
5
13E
100
AcDbEntity
8
magnets
6
ByLayer
62
256
370
-1
100
AcDbLine
10
19.1292893059
20
12.9493903241
11
21.2506097059
21
15.0707107241
0
LINE
5
13F
100
AcDbEntity
8
ext_einzel
6
ByLayer
62
256
370
-1
100
AcDbLine
10
14.1917801
20
7
11
18.9696442
21
7
0
ARC
5
140
100
AcDbEntity
8
ext_einzel
6
ByLayer
62
256
370
-1
100
AcDbCircle
10
18.9696442
20
9
40
2
100
AcDbArc
50
270
51
296.565053161
0
LINE
5
141
100
AcDbEntity
8
ext_einzel
6
ByLayer
62
256
370
-1
100
AcDbLine
10
19.8640714619
20
7.21114563096
11
21.0194888381
21
7.78885436904
0
LINE
5
142
100
AcDbEntity
8
ext_einzel
6
ByLayer
62
256
370
-1
100
AcDbLine
10
21.9139161
20
8
11
28.6917801
21
8
0
ARC
5
143
100
AcDbEntity
8
ext_einzel
6
ByLayer
62
256
370
-1
100
AcDbCircle
10
21.9139161
20
6
40
2
100
AcDbArc
50
90
51
116.565053161
0
LINE
5
144
100
AcDbEntity
8
ext_einzel
6
ByLayer
62
256
370
-1
100
AcDbLine
10
21.6778481
20
9.5
11
28.6917801
21
9.5
0
ARC
5
145
100
AcDbEntity
8
ext_einzel
6
ByLayer
62
256
370
-1
100
AcDbCircle
10
21.6778481
20
8.5
40
1
100
AcDbArc
50
90
51
116.565052854
0
LINE
5
146
100
AcDbEntity
8
ext_einzel
6
ByLayer
62
256
370
-1
100
AcDbLine
10
19.8640714524
20
8.71114562618
11
21.2306344738
21
9.39442718691
0
LINE
5
147
100
AcDbEntity
8
ext_einzel
6
ByLayer
62
256
370
-1
100
AcDbLine
10
14.1917801
20
8.5
11
18.9696442
21
8.5
0
ARC
5
148
100
AcDbEntity
8
ext_einzel
6
ByLayer
62
256
370
-1
100
AcDbCircle
10
18.9696442
20
10.5
40
2
100
AcDbArc
50
270
51
296.565052854
0
LINE
5
149
100
AcDbEntity
8
gnd
6
ByLayer
62
256
370
-1
100
AcDbLine
10
152.2
20
23
11
169.2
21
23
0
ARC
5
14A
100
AcDbEntity
8
gnd
6
ByLayer
62
256
370
-1
100
AcDbCircle
10
169.2
20
24
40
1
100
AcDbArc
50
270
51
360
0
LINE
5
14B
100
AcDbEntity
8
gnd
6
ByLayer
62
256
370
-1
100
AcDbLine
10
170.2
20
24
11
170.2
21
24
0
LINE
5
14C
100
AcDbEntity
8
gnd
6
ByLayer
62
256
370
-1
100
AcDbLine
10
266.2
20
18
11
278.2
21
18
0
LINE
5
14D
100
AcDbEntity
8
gnd
6
ByLayer
62
256
370
-1
100
AcDbLine
10
206.2
20
18
11
192.7
21
18
0
LINE
5
14E
100
AcDbEntity
8
gnd
6
ByLayer
62
256
370
-1
100
AcDbLine
10
206.2
20
15
11
185.7
21
15
0
LINE
5
14F
100
AcDbEntity
8
gnd
6
ByLayer
62
256
370
-1
100
AcDbLine
10
279.7
20
16.5
11
279.7
21
16.5
0
LINE
5
150
100
AcDbEntity
8
gnd
6
ByLayer
62
256
370
-1
100
AcDbLine
10
207.7
20
16.5
11
207.7
21
16.5
0
ARC
5
151
100
AcDbEntity
8
gnd
6
ByLayer
62
256
370
-1
100
AcDbCircle
10
278.2
20
16.5
40
1.5
100
AcDbArc
50
270
51
360
0
ARC
5
152
100
AcDbEntity
8
gnd
6
ByLayer
62
256
370
-1
100
AcDbCircle
10
278.2
20
16.5
40
1.5
100
AcDbArc
50
360
51
90
0
ARC
5
153
100
AcDbEntity
8
gnd
6
ByLayer
62
256
370
-1
100
AcDbCircle
10
206.2
20
16.5
40
1.5
100
AcDbArc
50
270
51
360
0
ARC
5
154
100
AcDbEntity
8
gnd
6
ByLayer
62
256
370
-1
100
AcDbCircle
10
206.2
20
16.5
40
1.5
100
AcDbArc
50
360
51
90
0
LINE
5
155
100
AcDbEntity
8
gnd
6
ByLayer
62
256
370
-1
100
AcDbLine
10
261.7
20
36.5
11
264.7
21
36.5
0
ARC
5
156
100
AcDbEntity
8
gnd
6
ByLayer
62
256
370
-1
100
AcDbCircle
10
266.2
20
19.5
40
1.5
100
AcDbArc
50
180
51
270
0
ARC
5
157
100
AcDbEntity
8
gnd
6
ByLayer
62
256
370
-1
100
AcDbCircle
10
185.7
20
16.5
40
1.5
100
AcDbArc
50
180
51
270
0
LINE
5
158
100
AcDbEntity
8
gnd
6
ByLayer
62
256
370
-1
100
AcDbLine
10
264.7
20
36.5
11
264.7
21
19.5
0
LINE
5
159
100
AcDbEntity
8
gnd
6
ByLayer
62
256
370
-1
100
AcDbLine
10
152.2
20
23
11
152.2
21
16
0
LINE
5
15A
100
AcDbEntity
8
gnd
6
ByLayer
62
256
370
-1
100
AcDbLine
10
192.7
20
18
11
192.7
21
25
0
LINE
5
15B
100
AcDbEntity
8
gnd
6
ByLayer
62
256
370
-1
100
AcDbLine
10
184.2
20
25
11
184.2
21
16.5
0
LINE
5
15C
100
AcDbEntity
8
gnd
6
ByLayer
62
256
370
-1
100
AcDbLine
10
170.2
20
24
11
170.2
21
25
0
LINE
5
15D
100
AcDbEntity
8
gnd
6
ByLayer
62
256
370
-1
100
AcDbLine
10
184.2
20
25
11
170.2
21
25
0
LINE
5
15E
100
AcDbEntity
8
gnd
6
ByLayer
62
256
370
-1
100
AcDbLine
10
261.7
20
15
11
278.2
21
15
0
LINE
5
15F
100
AcDbEntity
8
gnd
6
ByLayer
62
256
370
-1
100
AcDbLine
10
261.7
20
15
11
261.7
21
25
0
LINE
5
160
100
AcDbEntity
8
gnd
6
ByLayer
62
256
370
-1
100
AcDbLine
10
261.7
20
25
11
192.7
21
25
0
LINE
5
161
100
AcDbEntity
8
gnd
6
ByLayer
62
256
370
-1
100
AcDbLine
10
261.7
20
60
11
261.7
21
36.5
0
LINE
5
162
100
AcDbEntity
8
gnd
6
ByLayer
62
256
370
-1
100
AcDbLine
10
152.2
20
16
11
150.2
21
16
0
LINE
5
163
100
AcDbEntity
8
gnd
6
ByLayer
62
256
370
-1
100
AcDbLine
10
150.2
20
10.5
11
150.2
21
16
0
LINE
5
164
100
AcDbEntity
8
gnd
6
ByLayer
62
256
370
-1
100
AcDbLine
10
261.7
20
60
11
258.7
21
60
0
LINE
5
165
100
AcDbEntity
8
gnd
6
ByLayer
62
256
370
-1
100
AcDbLine
10
258.7
20
80
11
258.7
21
60
0
LINE
5
166
100
AcDbEntity
8
plasma
6
ByLayer
62
256
370
-1
100
AcDbLine
10
-5.5021362
20
8
11
0
21
8
0
LINE
5
167
100
AcDbEntity
8
plasma
6
ByLayer
62
256
370
-1
100
AcDbLine
10
0.4
20
5.5
11
0
21
5.5
0
LINE
5
168
100
AcDbEntity
8
plasma
6
ByLayer
62
256
370
-1
100
AcDbLine
10
0
20
5.5
11
0
21
8
0
DIMENSION
5
169
100
AcDbEntity
8
dim
6
ByLayer
62
256
370
-1
100
AcDbDimension
2
*D8
10
-7.42617542933
20
9e-16
30
0
11
-8.52617542933
21
2.75
31
0
70
32
71
5
72
0
3
Standard
53
0
210
0
220
0
230
1
100
AcDbAlignedDimension
13
0.173373745432
23
5.5
33
0
14
0.260060618148
24
0
34
0
50
90
100
AcDbRotatedDimension
0
DIMENSION
5
16A
100
AcDbEntity
8
dim
6
ByLayer
62
256
370
-1
100
AcDbDimension
2
*D9
10
6.15160750393
20
-1e-16
30
0
11
5.05160750393
21
2.375
31
0
70
32
71
5
72
0
3
Standard
53
0
210
0
220
0
230
1
100
AcDbAlignedDimension
13
5.0793089482
23
4.75
33
0
14
5.24861924647
24
0
34
0
50
90
100
AcDbRotatedDimension
0
DIMENSION
5
16B
100
AcDbEntity
8
dim
6
ByLayer
62
256
370
-1
100
AcDbDimension
2
*D10
10
31.9
20
22.1558398131
30
0
11
22.2
21
23.2558398131
31
0
70
32
71
5
72
0
3
Standard
53
0
210
0
220
0
230
1
100
AcDbAlignedDimension
13
12.5
23
21.3842434017
33
0
14
31.9
24
21.4944714605
34
0
100
AcDbRotatedDimension
0
ENDSEC
0
SECTION
2
OBJECTS
0
DICTIONARY
5
C
330
0
100
AcDbDictionary
281
1
3
ACAD_GROUP
350
D
0
DICTIONARY
5
D
330
C
100
AcDbDictionary
281
1
0
ENDSEC
0
EOF
